<svg width="512" height="512" viewBox="0 0 512 512" fill="none" xmlns="http://www.w3.org/2000/svg">
<rect width="512" height="512" fill="white"/>
<path d="M279.884 44.25C281.956 33.8506 292.067 27.1002 302.467 29.1728C312.866 31.2456 319.617 41.3566 317.544 51.7558L306.827 105.525C370.276 126.767 416 186.684 416 257.281C416 345.647 344.366 417.281 256 417.281C252.225 417.281 248.481 417.148 244.771 416.891L234.982 466.008C232.91 476.407 222.799 483.157 212.399 481.085C202 479.012 195.25 468.901 197.322 458.502L207.057 409.654C142.631 388.977 96 328.576 96 257.281C96.0002 168.916 167.635 97.2812 256 97.2812C260.447 97.2812 264.851 97.4655 269.206 97.8213L279.884 44.25ZM283.613 222.002C294.076 230.203 300.8 242.957 300.8 257.281C300.8 277.875 286.903 295.22 267.977 300.459L252.357 378.825C253.567 378.861 254.782 378.881 256 378.881C323.158 378.881 377.6 324.439 377.6 257.281C377.599 205.353 345.05 161.027 299.24 143.594L283.613 222.002ZM256 135.682C188.842 135.682 134.401 190.124 134.4 257.281C134.4 309.913 167.839 354.733 214.63 371.66L230.135 293.864C218.678 285.749 211.2 272.389 211.2 257.281C211.2 235.928 226.14 218.066 246.137 213.573L261.635 135.812C259.767 135.727 257.889 135.682 256 135.682Z" fill="url(#paint0_linear_32_7)"/>
<defs>
<linearGradient id="paint0_linear_32_7" x1="204.8" y1="280.163" x2="435.2" y2="406.563" gradientUnits="userSpaceOnUse">
<stop stop-color="#0E3CE1"/>
<stop offset="1" stop-color="#FF4D4D"/>
</linearGradient>
</defs>
</svg>
