<svg width="33" height="33" viewBox="0 0 33 33" fill="none" xmlns="http://www.w3.org/2000/svg">
<path fill-rule="evenodd" clip-rule="evenodd" d="M2.86407 0.996272C5.07754 1.95585 8.71041 1.84223 11.1471 0.026001C14.5542 2.49156 17.8334 2.23846 20.96 0.026001C23.0446 1.51413 26.2539 2.14951 29.2653 1.0275L30.6154 2.88002C27.0951 7.52638 28.3982 11.9677 32.0291 15.8762L30.5044 17.4031C30.8498 27.4244 22.991 29.817 18.4783 30.0654L16.052 32.026L13.6439 30.0947C5.58732 29.4075 1.33361 25.2098 1.59677 17.4288L0.0291138 15.8645C3.09217 12.5924 5.39386 8.12106 1.45911 2.87901L2.86407 0.996272Z" fill="black" stroke="black" stroke-width="0.0418491"/>
<path fill-rule="evenodd" clip-rule="evenodd" d="M3.04748 17.2272H28.9713C29.6526 24.3121 25.0949 28.1389 18.1645 28.5152L13.7606 28.5261C7.12997 28.0554 2.18997 24.5979 3.04748 17.2272Z" fill="#004D98"/>
<path d="M17.8951 17.3123H14.223V28.6336H17.8951V17.3123Z" fill="#A50044"/>
<path d="M10.5865 17.3123H6.91437V27.4303H10.5865V17.3123Z" fill="#A50044"/>
<path d="M10.5865 26.9117H8.19464V27.954H10.5865V26.9117Z" fill="#A50044"/>
<path d="M25.1621 17.3123H21.4899V27.4303H25.1621V17.3123Z" fill="#A50044"/>
<path d="M23.8818 26.9117H21.4899V27.954H23.8818V26.9117Z" fill="#A50044"/>
<path fill-rule="evenodd" clip-rule="evenodd" d="M15.9397 3.33734V13.3933L3.56481 13.4817L4.84034 8.64159L3.25153 2.85111L11.0837 1.85657L15.9397 3.33734Z" fill="white"/>
<path fill-rule="evenodd" clip-rule="evenodd" d="M16.1187 3.33734V13.3933L28.4936 13.4817L27.2181 8.64159L28.8069 2.85111L20.9747 1.85657L16.1187 3.33734Z" fill="#FFED02"/>
<path d="M12.3372 2.14307H8.78912V13.331H12.3372V2.14307Z" fill="#DB0030"/>
<path d="M15.9396 9.82037V6.31616H4.89915V9.82037H15.9396Z" fill="#DB0030"/>
<path d="M18.5415 2.93604H17.2292V13.2581H18.5415V2.93604Z" fill="#DB0030"/>
<path d="M21.0325 2.19678H19.7202V13.2825H21.0325V2.19678Z" fill="#DB0030"/>
<path d="M23.5399 2.82141H22.2276V13.3054H23.5399V2.82141Z" fill="#DB0030"/>
<path d="M26.0237 3.20557H24.7115V13.2962H26.0237V3.20557Z" fill="#DB0030"/>
<path fill-rule="evenodd" clip-rule="evenodd" d="M11.1264 0.822632C8.8411 2.47697 5.2248 2.65102 3.14883 1.82387L2.31737 2.88103C5.8844 7.83804 3.83498 12.8251 1.00665 15.8794L2.30909 17.2407C1.78058 24.7122 6.19534 29.0333 13.9564 29.4779L16.0599 31.213L18.1593 29.4507C22.6789 29.3737 30.6038 26.8702 29.7499 17.2298L31.0593 15.8903C27.7377 12.2522 26.5929 7.26907 29.8024 2.88103L29.0221 1.83069C26.1822 2.75244 22.9333 2.24151 20.9782 0.845821C18.0458 2.92084 14.3219 3.13504 11.1264 0.822632ZM21.0044 2.24264C22.7676 3.32385 24.7159 3.6315 28.0746 3.34073C26.3927 6.21471 26.2111 9.63837 27.7003 12.9439L4.39187 12.9302C5.64549 9.97657 5.93312 6.57774 3.96786 3.27525C6.39043 3.62262 8.75689 3.53939 11.1167 2.27129C14.3176 4.1271 17.6106 4.16105 21.0044 2.24264ZM3.56456 17.339H28.5594C29.2163 24.1699 24.8219 27.8589 18.1399 28.2216L13.8929 28.2325C7.49998 27.7786 2.7378 24.4454 3.56456 17.339Z" fill="#EDBB00" stroke="#DEB405" stroke-width="0.0392494"/>
<path fill-rule="evenodd" clip-rule="evenodd" d="M3.94086 3.31127C5.90612 6.61376 5.61828 10.0125 4.36466 12.9662L27.6726 12.9798C26.1833 9.67429 26.3656 6.25058 28.0475 3.3766C24.6888 3.66737 22.741 3.36001 20.9778 2.27881C17.5839 4.19722 14.2899 4.16253 11.089 2.30671C8.7292 3.57482 6.36343 3.65864 3.94086 3.31127Z" stroke="black" stroke-width="0.167396"/>
<path fill-rule="evenodd" clip-rule="evenodd" d="M3.56427 17.3389H28.5587C29.2156 24.1698 24.8213 27.8594 18.1393 28.2222L13.8933 28.2328C7.5004 27.7789 2.73751 24.4453 3.56427 17.3389Z" stroke="black" stroke-width="0.167396"/>
<path d="M16.0372 3.65662V12.9841" stroke="black" stroke-width="0.167396"/>
<path d="M19.4841 22.662C19.4842 23.1027 19.3964 23.5392 19.2256 23.9465C19.0549 24.3537 18.8046 24.7238 18.4891 25.0355C18.1735 25.3472 17.7989 25.5945 17.3865 25.7632C16.9742 25.9319 16.5323 26.0187 16.086 26.0187C15.6397 26.0187 15.1977 25.9319 14.7854 25.7632C14.3731 25.5945 13.9984 25.3472 13.6829 25.0355C13.3673 24.7238 13.117 24.3537 12.9463 23.9465C12.7756 23.5392 12.6877 23.1027 12.6878 22.662C12.6877 22.2212 12.7756 21.7847 12.9463 21.3774C13.117 20.9702 13.3673 20.6001 13.6829 20.2884C13.9984 19.9767 14.3731 19.7294 14.7854 19.5607C15.1977 19.392 15.6397 19.3052 16.086 19.3052C16.5323 19.3052 16.9742 19.392 17.3865 19.5607C17.7989 19.7294 18.1735 19.9767 18.4891 20.2884C18.8046 20.6001 19.0549 20.9702 19.2256 21.3774C19.3964 21.7847 19.4842 22.2212 19.4841 22.662Z" fill="#EDBB00" stroke="black" stroke-width="0.168235"/>
<path d="M14.1256 19.928C13.729 21.3558 13.483 22.7616 14.6273 23.4371C15.4268 23.9091 15.9674 22.9465 16.1172 22.5735" stroke="black" stroke-width="0.146472"/>
<path d="M12.9412 24.015C13.6111 23.9848 13.9606 23.9304 14.3903 23.2856" stroke="black" stroke-width="0.146472"/>
<path d="M16.0891 22.5987C16.7613 22.1906 17.3592 22.3881 17.6369 23.4097C18.2912 23.1501 18.9217 23.6488 19.086 24.1528" stroke="black" stroke-width="0.146472"/>
<path d="M17.6509 23.4097C17.1543 24.5938 15.848 25.142 14.0142 25.3225" stroke="black" stroke-width="0.146472"/>
<path d="M16.09 22.6472C15.6775 22.2741 15.0427 21.8471 15.9674 20.7501C15.575 20.259 15.4681 19.7792 15.9811 19.3239" stroke="black" stroke-width="0.146472"/>
<path d="M19.4687 22.8625C18.8652 21.8089 17.4605 20.3489 15.9675 20.7366" stroke="black" stroke-width="0.146472"/>
<path d="M11.3347 13.5428V13.5551H10.7173V14.7391V15.4103V16.7266H11.3844V15.4103H12.3361V14.7391H11.3844V14.2249H13.0266V13.5428H11.3347Z" fill="black"/>
<path fill-rule="evenodd" clip-rule="evenodd" d="M16.3851 14.5363L16.9838 14.2275C16.6017 13.3929 15.052 13.1555 14.5422 14.2275C14.0163 15.5061 14.5753 16.694 15.5934 16.8097C16.2403 16.9028 16.7529 16.59 16.9705 16.0344L16.3784 15.6993C16.2207 16.0874 15.6195 16.3545 15.161 15.7059C15.0197 15.4161 14.9835 14.97 15.141 14.5363C15.517 14.026 16.0667 14.0813 16.3851 14.5363Z" fill="black" stroke="black" stroke-width="0.00836981"/>
<path fill-rule="evenodd" clip-rule="evenodd" d="M18.6741 13.551L18.6866 16.7512L20.4503 16.7443C21.0242 16.665 21.7766 15.7371 20.895 15.0161C21.3611 14.6104 21.3027 13.7427 20.3702 13.5578L18.6741 13.551ZM19.3523 14.1812H20.2307C20.617 14.291 20.5024 14.6578 20.2431 14.72H19.3523V14.1812ZM19.3592 15.3448L20.2832 15.3571C20.7402 15.4914 20.637 16.0058 20.297 16.0937L19.3661 16.0869L19.3592 15.3448Z" fill="black" stroke="black" stroke-width="0.0418491"/>
</svg>
